<?xml version="1.0" encoding="UTF-8" standalone="no"?>
<!-- Created by diasvg.py -->
<svg width="42.440cm" height="60.064cm" viewBox="0.850 -3.800 43.290 56.264"
 xmlns="http://www.w3.org/2000/svg"
 xmlns:xlink="http://www.w3.org/1999/xlink">
<image x="25.250" y="47.550"  width="9.500" height="8.664" xlink:href="file:///home/user1/www/controller/irrigation_smp/client/image/help/valve_empty.png"/>
<polygon fill="#FFFFFF" stroke="none" stroke-width="0.100" points="2.700,-3.750 19.170,-3.750 19.770,-3.150 19.770,-0.450 2.700,-0.450 "/>
<polygon fill="none" stroke="#000000" stroke-width="0.100"  points="2.700,-3.750 19.170,-3.750 19.770,-3.150 19.770,-0.450 2.700,-0.450 "/>
<polyline fill="none" stroke="#000000" stroke-width="0.050"  points="19.170,-3.750 19.170,-3.150 19.770,-3.150 "/>
<text x="3.050" y="-2.505"  fill="#000000" text-anchor="start" font-size="0.80" font-family="monospace" font-style="normal" font-weight="400">
для выделенных клапанов загрузить</text>
<text x="3.050" y="-1.705"  fill="#000000" text-anchor="start" font-size="0.80" font-family="monospace" font-style="normal" font-weight="400">
программы в оперативную память контроллера</text>
<text x="3.050" y="-0.905"  fill="#000000" text-anchor="start" font-size="0.80" font-family="monospace" font-style="normal" font-weight="400">
и начать их выполнение </text>
<polygon fill="#FFFFFF" stroke="none" stroke-width="0.100" points="4.900,15.200 19.060,15.200 19.660,15.800 19.660,19.300 4.900,19.300 "/>
<polygon fill="none" stroke="#000000" stroke-width="0.100"  points="4.900,15.200 19.060,15.200 19.660,15.800 19.660,19.300 4.900,19.300 "/>
<polyline fill="none" stroke="#000000" stroke-width="0.050"  points="19.060,15.200 19.060,15.800 19.660,15.800 "/>
<text x="5.250" y="16.445"  fill="#000000" text-anchor="start" font-size="0.80" font-family="monospace" font-style="normal" font-weight="400">
для выделенных клапанов запустить</text>
<text x="5.250" y="17.245"  fill="#000000" text-anchor="start" font-size="0.80" font-family="monospace" font-style="normal" font-weight="400">
основной цикл программы. Действует,</text>
<text x="5.250" y="18.045"  fill="#000000" text-anchor="start" font-size="0.80" font-family="monospace" font-style="normal" font-weight="400">
если программа находится в состоянии</text>
<text x="5.250" y="18.845"  fill="#000000" text-anchor="start" font-size="0.80" font-family="monospace" font-style="normal" font-weight="400">
WMANUAL</text>
<polygon fill="#FFFFFF" stroke="none" stroke-width="0.100" points="25.400,-2.470 42.640,-2.470 43.240,-1.870 43.240,1.630 25.400,1.630 "/>
<polygon fill="none" stroke="#000000" stroke-width="0.100"  points="25.400,-2.470 42.640,-2.470 43.240,-1.870 43.240,1.630 25.400,1.630 "/>
<polyline fill="none" stroke="#000000" stroke-width="0.050"  points="42.640,-2.470 42.640,-1.870 43.240,-1.870 "/>
<text x="25.750" y="-1.225"  fill="#000000" text-anchor="start" font-size="0.80" font-family="monospace" font-style="normal" font-weight="400">
для выделенных клапанов выгрузить</text>
<text x="25.750" y="-0.425"  fill="#000000" text-anchor="start" font-size="0.80" font-family="monospace" font-style="normal" font-weight="400">
программы из оперативную память контроллера.</text>
<text x="25.750" y="0.375"  fill="#000000" text-anchor="start" font-size="0.80" font-family="monospace" font-style="normal" font-weight="400">
Выполнение программ прекращается,</text>
<text x="25.750" y="1.175"  fill="#000000" text-anchor="start" font-size="0.80" font-family="monospace" font-style="normal" font-weight="400">
текущие данные теряются. </text>
<polygon fill="#FFFFFF" stroke="none" stroke-width="0.100" points="23.350,14.450 41.360,14.450 41.960,15.050 41.960,17.750 23.350,17.750 "/>
<polygon fill="none" stroke="#000000" stroke-width="0.100"  points="23.350,14.450 41.360,14.450 41.960,15.050 41.960,17.750 23.350,17.750 "/>
<polyline fill="none" stroke="#000000" stroke-width="0.050"  points="41.360,14.450 41.360,15.050 41.960,15.050 "/>
<text x="23.700" y="15.695"  fill="#000000" text-anchor="start" font-size="0.80" font-family="monospace" font-style="normal" font-weight="400">
для выделенных клапанов начать выполнение</text>
<text x="23.700" y="16.495"  fill="#000000" text-anchor="start" font-size="0.80" font-family="monospace" font-style="normal" font-weight="400">
программы заново. Все текущие данные программы</text>
<text x="23.700" y="17.295"  fill="#000000" text-anchor="start" font-size="0.80" font-family="monospace" font-style="normal" font-weight="400">
теряются.</text>
<polygon fill="#FFFFFF" stroke="none" stroke-width="0.100" points="0.900,28.150 15.830,28.150 16.430,28.750 16.430,33.050 0.900,33.050 "/>
<polygon fill="none" stroke="#000000" stroke-width="0.100"  points="0.900,28.150 15.830,28.150 16.430,28.750 16.430,33.050 0.900,33.050 "/>
<polyline fill="none" stroke="#000000" stroke-width="0.050"  points="15.830,28.150 15.830,28.750 16.430,28.750 "/>
<text x="1.250" y="29.395"  fill="#000000" text-anchor="start" font-size="0.80" font-family="monospace" font-style="normal" font-weight="400">
принудительно включить выделенные</text>
<text x="1.250" y="30.195"  fill="#000000" text-anchor="start" font-size="0.80" font-family="monospace" font-style="normal" font-weight="400">
клапана. При этом активные программы</text>
<text x="1.250" y="30.995"  fill="#000000" text-anchor="start" font-size="0.80" font-family="monospace" font-style="normal" font-weight="400">
продолжают управлять своими клапанами</text>
<text x="1.250" y="31.795"  fill="#000000" text-anchor="start" font-size="0.80" font-family="monospace" font-style="normal" font-weight="400">
и могут в какой-то момент включить или</text>
<text x="1.250" y="32.595"  fill="#000000" text-anchor="start" font-size="0.80" font-family="monospace" font-style="normal" font-weight="400">
выключить клапан.</text>
<polygon fill="#FFFFFF" stroke="none" stroke-width="0.100" points="20.400,28.280 35.330,28.280 35.930,28.880 35.930,33.180 20.400,33.180 "/>
<polygon fill="none" stroke="#000000" stroke-width="0.100"  points="20.400,28.280 35.330,28.280 35.930,28.880 35.930,33.180 20.400,33.180 "/>
<polyline fill="none" stroke="#000000" stroke-width="0.050"  points="35.330,28.280 35.330,28.880 35.930,28.880 "/>
<text x="20.750" y="29.525"  fill="#000000" text-anchor="start" font-size="0.80" font-family="monospace" font-style="normal" font-weight="400">
принудительно выключить выделенные</text>
<text x="20.750" y="30.325"  fill="#000000" text-anchor="start" font-size="0.80" font-family="monospace" font-style="normal" font-weight="400">
клапана. При этом активные программы</text>
<text x="20.750" y="31.125"  fill="#000000" text-anchor="start" font-size="0.80" font-family="monospace" font-style="normal" font-weight="400">
продолжают управлять своими клапанами</text>
<text x="20.750" y="31.925"  fill="#000000" text-anchor="start" font-size="0.80" font-family="monospace" font-style="normal" font-weight="400">
и могут в какой-то момент включить или</text>
<text x="20.750" y="32.725"  fill="#000000" text-anchor="start" font-size="0.80" font-family="monospace" font-style="normal" font-weight="400">
выключить клапан.</text>
<polygon fill="#FFFFFF" stroke="none" stroke-width="0.100" points="18.850,36.050 32.625,36.050 33.225,36.650 33.225,37.750 18.850,37.750 "/>
<polygon fill="none" stroke="#000000" stroke-width="0.100"  points="18.850,36.050 32.625,36.050 33.225,36.650 33.225,37.750 18.850,37.750 "/>
<polyline fill="none" stroke="#000000" stroke-width="0.050"  points="32.625,36.050 32.625,36.650 33.225,36.650 "/>
<text x="19.200" y="37.295"  fill="#000000" text-anchor="start" font-size="0.80" font-family="monospace" font-style="normal" font-weight="400">
загрузить информацию из базы данных</text>
<polygon fill="#FFFFFF" stroke="none" stroke-width="0.100" points="18.450,42.550 33.380,42.550 33.980,43.150 33.980,44.250 18.450,44.250 "/>
<polygon fill="none" stroke="#000000" stroke-width="0.100"  points="18.450,42.550 33.380,42.550 33.980,43.150 33.980,44.250 18.450,44.250 "/>
<polyline fill="none" stroke="#000000" stroke-width="0.050"  points="33.380,42.550 33.380,43.150 33.980,43.150 "/>
<text x="18.800" y="43.795"  fill="#000000" text-anchor="start" font-size="0.80" font-family="monospace" font-style="normal" font-weight="400">
получить текущее состояние контроллера</text>
<rect x="4.300" y="4.650" width="9.300" height="2.900" fill="none" stroke="#FF0000" stroke-width="0.100" />
<rect x="13.850" y="4.630" width="9.800" height="2.900" fill="none" stroke="#FF0000" stroke-width="0.100" />
<rect x="4.200" y="7.760" width="13.150" height="2.900" fill="none" stroke="#FF0000" stroke-width="0.100" />
<rect x="17.600" y="7.730" width="9.000" height="2.900" fill="none" stroke="#FF0000" stroke-width="0.100" />
<image x="3.600" y="3.350"  width="23.942" height="8.100" xlink:href="file:///home/user1/www/controller/irrigation_smp/client/image/help/prog_b.png"/>
<path stroke="#000000" fill="none" stroke-width="0.100"  d="M 9.946,-0.400 C 7.861,2.350 12.684,0.100 10.174,4.133 "/>
<polygon fill="#000000" stroke="none" stroke-width="0.100" points="9.962,4.001 9.910,4.557 10.386,4.265 "/>
<polygon fill="none" stroke="#000000" stroke-width="0.100"  points="9.962,4.001 9.910,4.557 10.386,4.265 "/>
<path stroke="#000000" fill="none" stroke-width="0.100"  d="M 25.350,-0.420 C 19.251,-0.420 19.614,1.950 19.176,4.041 "/>
<polygon fill="#000000" stroke="none" stroke-width="0.100" points="18.932,3.990 19.074,4.531 19.421,4.092 "/>
<polygon fill="none" stroke="#000000" stroke-width="0.100"  points="18.932,3.990 19.074,4.531 19.421,4.092 "/>
<path stroke="#000000" fill="none" stroke-width="0.100"  d="M 4.850,17.250 C -0.180,17.250 1.991,13.900 7.481,10.969 "/>
<polygon fill="#000000" stroke="none" stroke-width="0.100" points="7.599,11.189 7.922,10.733 7.363,10.748 "/>
<polygon fill="none" stroke="#000000" stroke-width="0.100"  points="7.599,11.189 7.922,10.733 7.363,10.748 "/>
<path stroke="#000000" fill="none" stroke-width="0.100"  d="M 23.300,16.100 C 18.550,16.100 22.547,13.750 22.300,11.227 "/>
<polygon fill="#000000" stroke="none" stroke-width="0.100" points="22.549,11.203 22.251,10.730 22.051,11.252 "/>
<polygon fill="none" stroke="#000000" stroke-width="0.100"  points="22.549,11.203 22.251,10.730 22.051,11.252 "/>
<rect x="6.050" y="22.080" width="9.500" height="2.900" fill="none" stroke="#FF0000" stroke-width="0.100" />
<rect x="15.900" y="22.080" width="9.500" height="2.900" fill="none" stroke="#FF0000" stroke-width="0.100" />
<image x="5.300" y="20.750"  width="20.900" height="5.116" xlink:href="file:///home/user1/www/controller/irrigation_smp/client/image/help/valve_b.png"/>
<rect x="2.400" y="36.130" width="9.900" height="3.220" fill="none" stroke="#FF0000" stroke-width="0.100" />
<rect x="2.400" y="40.080" width="11.150" height="3.220" fill="none" stroke="#FF0000" stroke-width="0.100" />
<image x="2.050" y="35.950"  width="11.950" height="7.646" xlink:href="file:///home/user1/www/controller/irrigation_smp/client/image/help/util_b.png"/>
<path stroke="#000000" fill="none" stroke-width="0.100"  d="M 20.354,30.730 C 18.108,30.730 18.067,29.199 19.739,25.530 "/>
<polygon fill="#000000" stroke="none" stroke-width="0.100" points="19.966,25.634 19.946,25.075 19.511,25.426 "/>
<polygon fill="none" stroke="#000000" stroke-width="0.100"  points="19.966,25.634 19.946,25.075 19.511,25.426 "/>
<path stroke="#000000" fill="none" stroke-width="0.100"  d="M 5.170,28.100 C 1.955,25.800 4.250,23.792 5.450,23.744 "/>
<polygon fill="#000000" stroke="none" stroke-width="0.100" points="5.460,23.994 5.950,23.724 5.440,23.494 "/>
<polygon fill="none" stroke="#000000" stroke-width="0.100"  points="5.460,23.994 5.950,23.724 5.440,23.494 "/>
<path stroke="#000000" fill="none" stroke-width="0.100"  d="M 18.400,43.400 C 15.407,43.400 16.593,41.690 14.150,41.690 "/>
<polygon fill="#000000" stroke="none" stroke-width="0.100" points="14.150,41.440 13.650,41.690 14.150,41.940 "/>
<polygon fill="none" stroke="#000000" stroke-width="0.100"  points="14.150,41.440 13.650,41.690 14.150,41.940 "/>
<path stroke="#000000" fill="none" stroke-width="0.100"  d="M 18.801,36.900 C 16.016,36.900 15.133,37.740 12.899,37.740 "/>
<polygon fill="#000000" stroke="none" stroke-width="0.100" points="12.899,37.490 12.399,37.740 12.899,37.990 "/>
<polygon fill="none" stroke="#000000" stroke-width="0.100"  points="12.899,37.490 12.399,37.740 12.899,37.990 "/>
</svg>